<svg xmlns="http://www.w3.org/2000/svg" width="24" height="24" viewBox="0 0 24 24">
    <path fill="#FFF" fill-rule="evenodd" d="M12 16.68a4.68 4.68 0 1 1 0-9.36 4.68 4.68 0 1 1 0 9.36m10.158-6.588l-.001-.001a1.461 1.461 0 0 1-1.248-1 9.208 9.208 0 0 0-.552-1.327 1.466 1.466 0 0 1 .173-1.594c.459-.559.455-1.378-.03-1.913a11.354 11.354 0 0 0-.758-.758c-.534-.486-1.353-.488-1.91-.03h-.002a1.466 1.466 0 0 1-1.594.174 9.293 9.293 0 0 0-1.327-.553 1.46 1.46 0 0 1-1-1.246c-.071-.718-.648-1.295-1.369-1.33-.355-.017-.713-.02-1.072-.002-.722.031-1.306.61-1.377 1.33v.002a1.462 1.462 0 0 1-1 1.246c-.458.15-.902.336-1.327.553a1.465 1.465 0 0 1-1.594-.174c-.56-.458-1.377-.455-1.913.031-.265.242-.518.495-.758.758-.486.534-.488 1.352-.03 1.911v.001c.37.45.438 1.074.173 1.594a9.205 9.205 0 0 0-.551 1.328c-.18.55-.67.942-1.248.999-.717.07-1.294.65-1.33 1.369-.017.356-.017.713-.002 1.072.033.723.61 1.306 1.33 1.377h.002a1.463 1.463 0 0 1 1.248 1c.15.459.335.902.551 1.327a1.463 1.463 0 0 1-.172 1.594v.001c-.459.558-.455 1.377.03 1.912.242.265.495.519.758.758.534.487 1.352.488 1.911.03a1.464 1.464 0 0 1 1.595-.173c.425.217.868.401 1.327.552.552.18.943.67 1 1.247.07.718.649 1.294 1.368 1.33.357.017.714.018 1.073.002.723-.033 1.306-.61 1.377-1.33v-.002a1.46 1.46 0 0 1 1-1.247c.458-.15.903-.335 1.327-.552a1.464 1.464 0 0 1 1.594.172v.001c.558.458 1.378.455 1.912-.032.265-.24.519-.493.76-.757.485-.534.487-1.353.028-1.911a1.466 1.466 0 0 1-.173-1.595c.217-.425.403-.868.552-1.328a1.46 1.46 0 0 1 1.248-1c.717-.069 1.294-.648 1.33-1.368.017-.356.018-.713.001-1.071-.033-.724-.61-1.307-1.33-1.377"/>
</svg>
